<?xml version="1.0" encoding="utf-8"?>
<!-- Generator: Adobe Illustrator 19.2.1, SVG Export Plug-In . SVG Version: 6.00 Build 0)  -->
<svg version="1.1" id="Layer_1" xmlns="http://www.w3.org/2000/svg" xmlns:xlink="http://www.w3.org/1999/xlink" x="0px" y="0px"
	 viewBox="0 0 12 12" style="enable-background:new 0 0 12 12;" xml:space="preserve">
<style type="text/css">
	.st0{fill:#1DAFE9;}
</style>
<path class="st0" d="M11.5,10.4L9.4,8.3c0.7-0.9,1.1-1.9,1.1-3.1C10.5,2.3,8.2,0,5.3,0S0.2,2.3,0.2,5.2s2.3,5.2,5.2,5.2
	c1,0,1.9-0.3,2.7-0.8c0,0,0,0,0,0.1l2.1,2.1c0.2,0.2,0.4,0.3,0.7,0.3c0.2,0,0.5-0.1,0.7-0.3C11.9,11.3,11.9,10.7,11.5,10.4z
	 M5.3,9.2c-2.2,0-4-1.8-4-4s1.8-4,4-4s4,1.8,4,4S7.6,9.2,5.3,9.2z"/>
</svg>
